<?xml version="1.0" encoding="utf-8"?>
<svg version="1.1" id="Layer_1" xmlns="http://www.w3.org/2000/svg" xmlns:xlink="http://www.w3.org/1999/xlink" x="0px" y="0px"
	 viewBox="0 0 1000 1000" style="enable-background:new 0 0 1000 1000;" xml:space="preserve">
<style type="text/css">
	.st0{fill:none;stroke:#FFFFFF;stroke-width:69.9993;stroke-linejoin:round;stroke-miterlimit:9.9999;}
	.st1{fill:#FFFFFF;}
	.st2{fill:none;stroke:#FFFFFF;stroke-width:50;stroke-linejoin:round;stroke-miterlimit:10;}
</style>
<g id="base">
	
		<rect x="200" y="200" transform="matrix(0.7071 -0.7071 0.7071 0.7071 -207.1088 499.9952)" class="st0" width="600" height="600"/>
	<g>
		<path class="st1" d="M943,476.8l-1.8-1.3c-14.3-9.9-29.4-18.7-44.6-27c-65.7-35.4-140.9-58.6-216.1-49.9
			C629.4,404,581.7,424.7,540,454v25.4c3.9-2.9,7.8-5.7,11.9-8.3c81.8-55.3,176-57,260-5.4c23,14.1,44.2,31.3,62.5,51.1
			c5.3,6,10.6,11.8,14.9,18.5l0.3,0.5v0.1c0.2-0.2,55.4-57.5,55.4-57.5C944.2,477.6,943.7,477.3,943,476.8z"/>
		<path class="st1" d="M395.9,575c0-5.3,2.1-10.4,5.9-14.1c3.8-3.8,8.8-5.9,14.1-5.9h30.7c4.5-2.9,9-6,13.4-9.1v-14.6
			c0-1.7,0.2-3.4,0.7-5c-0.4-1.6-0.7-3.3-0.7-5v-0.8c-39.9,29.2-86.4,49.3-136.2,51.1c-75.3,3.1-147.8-34.2-198.2-88.4
			c-5.3-6-10.6-11.8-14.9-18.5l-0.3-0.5c0.4-0.9-55.5,57.6-55.5,57.4l1.1,0.9l0.9,0.7l1.8,1.3c14.3,9.9,29.4,18.7,44.6,27
			c92.4,50.1,195.4,70.6,292.5,30.2C395.9,577.5,395.9,575,395.9,575z"/>
	</g>
	<g>
		<polyline class="st2" points="281.2,850 150,850 150,718.8 		"/>
		<polyline class="st2" points="718.8,850 850,850 850,718.8 		"/>
		<polyline class="st2" points="718.8,150 850,150 850,281.2 		"/>
		<polyline class="st2" points="281.2,150 150,150 150,281.2 		"/>
	</g>
</g>
<g id="shovel">
	<path id="handle" class="st1" d="M570.8,232.8c-23.3-5.4-47-6.5-70.8-6.7c-23.7,0.2-47.5,1.4-70.8,6.7c-4.2,0.9-7,5-6.2,9.3
		c0,0.9,0.1,1.6,0.1,2.4c0.2,5.2,0.6,10.3,1.3,15.4c3.2,23.6,9.5,47.7,24.5,67c12.6,16.2,30.5,25.1,51.1,25.1
		c20.6-0.1,38.5-8.9,51.1-25.1c15-19.3,21.3-43.4,24.5-67c0.6-5.1,1.1-10.3,1.3-15.4c0.1-0.8,0.1-1.5,0.1-2.4
		C577.7,237.9,575,233.7,570.8,232.8z M500,332c-38.9,0-52.4-44.1-56.1-78c18.6,2.9,37.3,3.7,56.1,3.8c18.8-0.1,37.5-0.9,56.1-3.8
		C552.4,287.9,538.9,332.1,500,332z"/>
	<path id="blade" class="st1" d="M584.1,575H530v25.6c0,0.7-0.1,1.5-0.2,2.2l-15.9,71c-1.5,6.5-7.2,11.1-13.9,11.1
		s-12.4-4.6-13.9-11.1l-15.9-71c-0.2-0.7-0.2-1.4-0.2-2.2V575h-54.1c0,0,0,70.3,0,91c0,27.6,15.9,120.5,84.1,132.1
		c68.2-11.6,84.1-104.5,84.1-132.1C584.1,645.3,584.1,575,584.1,575z"/>
	<g id="shaft">
		<path id="socket" class="st1" d="M480,531.3v69.3l15.9,71c1,4.4,7.2,4.4,8.2,0l15.9-71v-69.3H480z"/>
		<rect id="shaft_00000170278316323613077140000015950698678898873003_" x="480" y="342" class="st1" width="40" height="179.3"/>
	</g>
</g>
</svg>
